<?xml version="1.0" encoding="iso-8859-1"?>
<!-- Generator: Adobe Illustrator 18.0.0, SVG Export Plug-In . SVG Version: 6.00 Build 0)  -->
<!DOCTYPE svg PUBLIC "-//W3C//DTD SVG 1.1//EN" "http://www.w3.org/Graphics/SVG/1.1/DTD/svg11.dtd">
<svg version="1.1" id="Layer_1" xmlns="http://www.w3.org/2000/svg" xmlns:xlink="http://www.w3.org/1999/xlink" x="0px" y="0px"
	 viewBox="0 0 841.89 595.28" style="enable-background:new 0 0 841.89 595.28;" xml:space="preserve">
<g>
	<path d="M566.162,179.225l-67.736,214.171c-2.924,9.259-8.325,16.812-16.203,22.66c-7.878,5.848-15.634,8.772-23.269,8.772
		c-5.523,0-8.284-2.599-8.284-7.797c0-1.949,0.487-4.305,1.462-7.066l65.786-213.196c1.949-6.985,4.305-12.101,7.066-15.35
		c3.898-4.711,9.381-8.568,16.447-11.574s13.198-4.508,18.396-4.508c2.274,0,4.102,0.731,5.482,2.193
		c1.381,1.462,2.071,3.411,2.071,5.848C567.38,174.839,566.974,176.788,566.162,179.225z"/>
	<path d="M401.458,228.211c-1.78-0.556-4.013-1.403-7.026-2.667c-2.873-1.205-3.805-1.484-3.836-1.493l-0.813-0.232l-0.781-0.324
		c-8.808-3.654-16.921-6.003-24.388-7.267l14.783,43.837c0.262,0.034,0.487,0.064,0.753,0.098
		c15.583,1.97,29.187,5.634,40.436,10.89c2.744,1.282,5.306,2.675,7.772,4.126l-14.123-46.145c-1.338,0.176-2.682,0.457-4.009,0.457
		C407.12,229.489,404.169,229.059,401.458,228.211z"/>
	<path d="M284.499,204.321c21.441-25.989,51.573-38.984,90.396-38.984c10.233,0,20.71,1.218,31.431,3.655
		c10.721,2.436,19.005,5.929,24.852,10.477c5.036,3.898,7.553,7.715,7.553,11.452c0,4.061-3.37,9.055-10.111,14.985
		c-6.741,5.929-12.873,8.893-18.396,8.893c-0.134,0-0.23-0.048-0.363-0.05c-1.465-0.031-2.831-0.187-4.023-0.559
		c-1.3-0.406-3.208-1.137-5.726-2.193c-2.518-1.056-4.345-1.746-5.482-2.071c-10.932-4.535-21.038-7.377-30.388-8.666
		c-3.71-0.511-7.329-0.837-10.79-0.837c-22.904,0-43.045,5.279-60.426,15.837c-1.137,0.65-2.72,1.624-4.751,2.924
		c-2.031,1.299-3.655,2.314-4.873,3.046c-1.219,0.731-2.234,1.096-3.046,1.096c-2.274,0-3.411-1.38-3.411-4.142
		C276.946,215.61,279.464,210.656,284.499,204.321z"/>
	<path d="M392.194,403.995c-2.599,3.817-6.254,7.715-10.964,11.695c-4.711,3.98-11.168,7.35-19.371,10.112
		c-8.203,2.761-17.177,4.142-26.924,4.142c-13.645,0-26.721-3.167-39.228-9.502c-12.508-6.335-18.761-12.833-18.761-19.493
		c0-5.035,3.371-10.193,10.112-15.472c6.741-5.279,13.198-7.918,19.37-7.918c4.061,0,8.853,1.624,14.375,4.873
		c5.361,3.249,9.056,5.441,11.086,6.579c2.03,1.137,5.523,2.396,10.477,3.776c4.955,1.381,10.274,2.071,15.959,2.071
		c7.147,0,14.213-1.056,21.198-3.167c6.985-2.112,10.64-3.167,10.964-3.167c3.736,0,5.604,1.949,5.604,5.848
		C396.092,396.969,394.793,400.177,392.194,403.995z"/>
	<path d="M417.29,414.715c-5.198,3.492-9.746,5.239-13.645,5.239c-2.599,0-3.899-1.219-3.899-3.655c0-0.975,1.3-3.411,3.899-7.31
		c7.634-12.345,11.451-26.315,11.451-41.908c0-0.444-0.039-0.847-0.046-1.285c-0.209-14.777-3.94-25.881-11.224-33.283
		c-0.942-0.958-1.923-1.876-2.984-2.711c-9.502-7.472-23.188-12.02-41.056-13.645c-15.756-1.462-29.32-4.142-40.69-8.041
		c-11.37-3.898-20.223-8.65-26.558-14.254c-6.335-5.604-10.924-11.614-13.767-18.03c-2.843-6.416-4.264-13.36-4.264-20.832
		c0-7.635,3.899-14.416,11.695-20.345c7.797-5.929,14.376-8.894,19.736-8.894c3.736,0,6.254,2.518,7.554,7.553
		c1.299,5.523,2.639,10.152,4.02,13.888c1.38,3.736,3.33,7.025,5.848,9.868c2.518,2.843,5.035,5.117,7.553,6.822
		c2.518,1.706,6.416,3.249,11.696,4.629c5.279,1.381,10.314,2.477,15.106,3.289c4.792,0.812,11.655,1.787,20.589,2.924
		c2.208,0.279,4.272,0.655,6.377,1.004c11.367,1.883,21.323,4.714,29.684,8.62c9.584,4.478,16.837,10.005,21.862,16.534
		c0.17,0.221,0.39,0.42,0.555,0.643c5.035,6.822,8.609,13.888,10.721,21.198c2.112,7.31,3.167,15.594,3.167,24.853
		c0,0.146-0.017,0.288-0.018,0.434c-0.048,10.237-1.777,20.044-5.22,29.413c-3.492,9.502-7.757,17.218-12.792,23.147
		c-1.382,1.627-2.771,3.142-4.165,4.585C424.789,408.985,421.062,412.181,417.29,414.715z"/>
</g>
</svg>
