<?xml version="1.0" encoding="utf-8"?>
<!-- Generator: Adobe Illustrator 17.0.0, SVG Export Plug-In . SVG Version: 6.00 Build 0)  -->
<!DOCTYPE svg PUBLIC "-//W3C//DTD SVG 1.1//EN" "http://www.w3.org/Graphics/SVG/1.1/DTD/svg11.dtd">
<svg version="1.1" id="Layer_1" xmlns="http://www.w3.org/2000/svg" xmlns:xlink="http://www.w3.org/1999/xlink" x="0px" y="0px"
	 width="167.667px" height="100px" viewBox="0 0 167.667 100" enable-background="new 0 0 167.667 100" xml:space="preserve">
<path fill="#FFFFFF" d="M75.197,49.998c0,9.591,1.353,17.744,4.06,24.465c2.706,6.722,6.389,11.755,11.05,15.1
	c4.66,3.348,9.43,5.716,14.312,7.11c4.88,1.393,10.214,2.091,16.003,2.091c5.789,0,11.123-0.698,16.003-2.091
	c4.88-1.394,9.65-3.763,14.306-7.11c4.66-3.344,8.344-8.378,11.05-15.1c2.711-6.722,4.065-14.874,4.065-24.465
	c0-1.897-0.094-33.123-0.201-34.909h-17.93c0.105,1.742,0.169,32.984,0.169,34.909c0,7.07-0.706,12.893-2.116,17.473
	c-1.406,4.578-3.516,7.974-6.332,10.187c-2.817,2.214-5.669,3.689-8.548,4.425c-2.878,0.737-6.364,1.104-10.465,1.104
	c-4.101,0-7.592-0.367-10.47-1.104c-2.879-0.737-5.727-2.212-8.544-4.425c-2.817-2.214-4.93-5.609-6.337-10.187
	c-1.406-4.58-2.111-10.403-2.111-17.473c0-1.7-0.239-3.334-0.158-4.89l0,0c-0.197-5.821-0.916-11.395-2.738-16.265
	c0.003,0.005,0.003,0.014,0.005,0.021c-0.356-1.148-0.742-2.261-1.174-3.328c-1.383-3.436-3.025-6.425-4.919-8.977
	c-1.812-2.44-3.853-4.487-6.132-6.122c-4.657-3.346-9.427-5.716-14.307-7.108c-4.88-1.394-10.214-2.092-16.004-2.092
	c-5.789,0-11.123,0.698-16.003,2.092c-4.88,1.393-9.65,3.763-14.31,7.108c-4.661,3.346-8.344,8.378-11.051,15.1
	C3.663,32.258,2.31,40.412,2.31,49.998c0,9.591,1.353,17.744,4.059,24.465c2.707,6.722,6.39,11.755,11.051,15.1
	c4.66,3.348,9.43,5.716,14.31,7.11c4.88,1.393,10.214,2.091,16.003,2.091c5.79,0,11.124-0.698,16.004-2.091
	c4.88-1.394,9.65-3.763,14.307-7.11c0.243-0.174,0.473-0.373,0.712-0.557l-9.37-13.364c-0.581,0.645-1.982,1.498-2.64,2.017
	c-2.816,2.214-5.666,3.689-8.545,4.425c-2.879,0.737-6.367,1.104-10.468,1.104c-4.101,0-7.591-0.367-10.468-1.104
	c-2.882-0.737-5.729-2.212-8.545-4.425c-2.817-2.214-4.93-5.609-6.337-10.187c-1.406-4.58-2.111-10.403-2.111-17.473
	c0-7.066,0.705-12.889,2.111-17.468c1.407-4.58,3.521-7.975,6.337-10.189c2.816-2.212,5.663-3.687,8.545-4.424
	c2.876-0.737,6.367-1.106,10.468-1.106c4.102,0,7.589,0.369,10.468,1.106c2.879,0.737,5.729,2.212,8.545,4.424
	c2.816,2.214,4.926,5.609,6.335,10.189c1.202,3.91,1.86,8.78,2.037,14.503L75.197,49.998z"/>
</svg>
